<mxfile host="app.diagrams.net" agent="Mozilla/5.0 (Macintosh; Intel Mac OS X 10_15_7) AppleWebKit/605.1.15 (KHTML, like Gecko) Version/18.2 Safari/605.1.15" version="25.0.1" pages="2">
  <diagram id="gjxFihBUtJ-vOZ_F5De4" name="Pagina-1">
    <mxGraphModel dx="2796" dy="973" grid="1" gridSize="10" guides="1" tooltips="1" connect="1" arrows="1" fold="1" page="1" pageScale="1" pageWidth="827" pageHeight="1169" math="0" shadow="0">
      <root>
        <mxCell id="0" />
        <mxCell id="1" parent="0" />
        <mxCell id="qlaNP4QB0QQA5OWCbkRz-1" value="personale" style="shape=umlActor;verticalLabelPosition=bottom;verticalAlign=top;html=1;" vertex="1" parent="1">
          <mxGeometry x="680" y="170" width="30" height="60" as="geometry" />
        </mxCell>
        <mxCell id="qlaNP4QB0QQA5OWCbkRz-6" value="Freguent Fly" style="shape=umlActor;verticalLabelPosition=bottom;verticalAlign=top;html=1;" vertex="1" parent="1">
          <mxGeometry x="50" y="380" width="30" height="60" as="geometry" />
        </mxCell>
        <mxCell id="qlaNP4QB0QQA5OWCbkRz-7" value="DB" style="shape=umlActor;verticalLabelPosition=bottom;verticalAlign=top;html=1;" vertex="1" parent="1">
          <mxGeometry x="680" y="330" width="30" height="60" as="geometry" />
        </mxCell>
        <mxCell id="qlaNP4QB0QQA5OWCbkRz-9" value="gold" style="shape=umlActor;verticalLabelPosition=bottom;verticalAlign=top;html=1;" vertex="1" parent="1">
          <mxGeometry x="-20" y="520" width="30" height="60" as="geometry" />
        </mxCell>
        <mxCell id="qlaNP4QB0QQA5OWCbkRz-13" style="edgeStyle=orthogonalEdgeStyle;rounded=0;orthogonalLoop=1;jettySize=auto;html=1;exitX=0.5;exitY=0;exitDx=0;exitDy=0;exitPerimeter=0;" edge="1" parent="1" source="qlaNP4QB0QQA5OWCbkRz-10" target="qlaNP4QB0QQA5OWCbkRz-6">
          <mxGeometry relative="1" as="geometry">
            <Array as="points">
              <mxPoint x="65" y="500" />
              <mxPoint x="65" y="500" />
            </Array>
          </mxGeometry>
        </mxCell>
        <mxCell id="qlaNP4QB0QQA5OWCbkRz-10" value="silver" style="shape=umlActor;verticalLabelPosition=bottom;verticalAlign=top;html=1;" vertex="1" parent="1">
          <mxGeometry x="50" y="520" width="30" height="60" as="geometry" />
        </mxCell>
        <mxCell id="qlaNP4QB0QQA5OWCbkRz-14" style="edgeStyle=orthogonalEdgeStyle;rounded=0;orthogonalLoop=1;jettySize=auto;html=1;exitX=0.5;exitY=0;exitDx=0;exitDy=0;exitPerimeter=0;" edge="1" parent="1" source="qlaNP4QB0QQA5OWCbkRz-11" target="qlaNP4QB0QQA5OWCbkRz-6">
          <mxGeometry relative="1" as="geometry">
            <Array as="points">
              <mxPoint x="145" y="500" />
              <mxPoint x="65" y="500" />
            </Array>
          </mxGeometry>
        </mxCell>
        <mxCell id="qlaNP4QB0QQA5OWCbkRz-11" value="ordinario" style="shape=umlActor;verticalLabelPosition=bottom;verticalAlign=top;html=1;" vertex="1" parent="1">
          <mxGeometry x="130" y="520" width="30" height="60" as="geometry" />
        </mxCell>
        <mxCell id="qlaNP4QB0QQA5OWCbkRz-15" value="iscrizione programma" style="ellipse;html=1;whiteSpace=wrap;" vertex="1" parent="1">
          <mxGeometry x="210" y="310" width="110" height="40" as="geometry" />
        </mxCell>
        <mxCell id="qlaNP4QB0QQA5OWCbkRz-17" style="edgeStyle=orthogonalEdgeStyle;rounded=0;orthogonalLoop=1;jettySize=auto;html=1;exitX=0.5;exitY=0;exitDx=0;exitDy=0;exitPerimeter=0;" edge="1" parent="1" source="qlaNP4QB0QQA5OWCbkRz-9">
          <mxGeometry relative="1" as="geometry">
            <mxPoint x="65" y="440" as="targetPoint" />
            <Array as="points">
              <mxPoint x="-5" y="500" />
              <mxPoint x="65" y="500" />
            </Array>
          </mxGeometry>
        </mxCell>
        <mxCell id="qlaNP4QB0QQA5OWCbkRz-19" value="" style="endArrow=none;html=1;endSize=12;startArrow=none;startSize=14;startFill=0;align=center;verticalAlign=bottom;endFill=0;rounded=0;exitX=0.5;exitY=0;exitDx=0;exitDy=0;exitPerimeter=0;entryX=0;entryY=0.5;entryDx=0;entryDy=0;" edge="1" parent="1" source="qlaNP4QB0QQA5OWCbkRz-11" target="qlaNP4QB0QQA5OWCbkRz-15">
          <mxGeometry y="3" relative="1" as="geometry">
            <mxPoint x="250" y="520" as="sourcePoint" />
            <mxPoint x="410" y="520" as="targetPoint" />
          </mxGeometry>
        </mxCell>
        <mxCell id="qlaNP4QB0QQA5OWCbkRz-20" value="crea carta" style="ellipse;html=1;whiteSpace=wrap;" vertex="1" parent="1">
          <mxGeometry x="210" y="210" width="110" height="40" as="geometry" />
        </mxCell>
        <mxCell id="qlaNP4QB0QQA5OWCbkRz-22" value="&amp;lt;&amp;lt;include&amp;gt;&amp;gt;" style="endArrow=open;html=1;rounded=0;align=center;verticalAlign=bottom;dashed=1;endFill=0;labelBackgroundColor=none;exitX=0.5;exitY=0;exitDx=0;exitDy=0;entryX=0.5;entryY=1;entryDx=0;entryDy=0;" edge="1" parent="1" source="qlaNP4QB0QQA5OWCbkRz-15" target="qlaNP4QB0QQA5OWCbkRz-20">
          <mxGeometry relative="1" as="geometry">
            <mxPoint x="90" y="280" as="sourcePoint" />
            <mxPoint x="250" y="280" as="targetPoint" />
          </mxGeometry>
        </mxCell>
        <mxCell id="qlaNP4QB0QQA5OWCbkRz-24" value="ordinario" style="ellipse;html=1;whiteSpace=wrap;" vertex="1" parent="1">
          <mxGeometry x="80" y="120" width="110" height="40" as="geometry" />
        </mxCell>
        <mxCell id="qlaNP4QB0QQA5OWCbkRz-25" value="gold" style="ellipse;html=1;whiteSpace=wrap;" vertex="1" parent="1">
          <mxGeometry x="430" y="120" width="110" height="40" as="geometry" />
        </mxCell>
        <mxCell id="qlaNP4QB0QQA5OWCbkRz-26" value="silver" style="ellipse;html=1;whiteSpace=wrap;" vertex="1" parent="1">
          <mxGeometry x="240" y="70" width="110" height="40" as="geometry" />
        </mxCell>
        <mxCell id="qlaNP4QB0QQA5OWCbkRz-27" value="" style="endArrow=block;html=1;rounded=0;align=center;verticalAlign=bottom;endFill=0;labelBackgroundColor=none;endSize=8;exitX=0.5;exitY=1;exitDx=0;exitDy=0;entryX=0.5;entryY=0;entryDx=0;entryDy=0;" edge="1" parent="1" source="qlaNP4QB0QQA5OWCbkRz-24" target="qlaNP4QB0QQA5OWCbkRz-20">
          <mxGeometry x="0.001" relative="1" as="geometry">
            <mxPoint x="80" y="210" as="sourcePoint" />
            <mxPoint x="240" y="210" as="targetPoint" />
            <mxPoint as="offset" />
          </mxGeometry>
        </mxCell>
        <mxCell id="qlaNP4QB0QQA5OWCbkRz-33" value="punti&amp;gt;0" style="edgeLabel;html=1;align=center;verticalAlign=middle;resizable=0;points=[];" vertex="1" connectable="0" parent="qlaNP4QB0QQA5OWCbkRz-27">
          <mxGeometry x="-0.1199" y="3" relative="1" as="geometry">
            <mxPoint as="offset" />
          </mxGeometry>
        </mxCell>
        <mxCell id="qlaNP4QB0QQA5OWCbkRz-29" value="" style="endArrow=block;html=1;rounded=0;align=center;verticalAlign=bottom;endFill=0;labelBackgroundColor=none;endSize=8;exitX=0.5;exitY=1;exitDx=0;exitDy=0;entryX=0.5;entryY=0;entryDx=0;entryDy=0;" edge="1" parent="1" source="qlaNP4QB0QQA5OWCbkRz-25" target="qlaNP4QB0QQA5OWCbkRz-20">
          <mxGeometry x="0.001" relative="1" as="geometry">
            <mxPoint x="145" y="170" as="sourcePoint" />
            <mxPoint x="275" y="220" as="targetPoint" />
            <mxPoint as="offset" />
          </mxGeometry>
        </mxCell>
        <mxCell id="qlaNP4QB0QQA5OWCbkRz-31" value="punti&amp;gt;50000" style="edgeLabel;html=1;align=center;verticalAlign=middle;resizable=0;points=[];" vertex="1" connectable="0" parent="qlaNP4QB0QQA5OWCbkRz-29">
          <mxGeometry x="-0.021" relative="1" as="geometry">
            <mxPoint as="offset" />
          </mxGeometry>
        </mxCell>
        <mxCell id="qlaNP4QB0QQA5OWCbkRz-30" value="" style="endArrow=block;html=1;rounded=0;align=center;verticalAlign=bottom;endFill=0;labelBackgroundColor=none;endSize=8;exitX=0.5;exitY=1;exitDx=0;exitDy=0;entryX=0.5;entryY=0;entryDx=0;entryDy=0;" edge="1" parent="1" source="qlaNP4QB0QQA5OWCbkRz-26" target="qlaNP4QB0QQA5OWCbkRz-20">
          <mxGeometry x="0.001" relative="1" as="geometry">
            <mxPoint x="155" y="180" as="sourcePoint" />
            <mxPoint x="285" y="230" as="targetPoint" />
            <mxPoint as="offset" />
          </mxGeometry>
        </mxCell>
        <mxCell id="qlaNP4QB0QQA5OWCbkRz-32" value="punti&amp;gt;25000" style="edgeLabel;html=1;align=center;verticalAlign=middle;resizable=0;points=[];" vertex="1" connectable="0" parent="qlaNP4QB0QQA5OWCbkRz-30">
          <mxGeometry x="-0.357" y="1" relative="1" as="geometry">
            <mxPoint as="offset" />
          </mxGeometry>
        </mxCell>
        <mxCell id="qlaNP4QB0QQA5OWCbkRz-34" value="" style="endArrow=none;html=1;endSize=12;startArrow=none;startSize=14;startFill=0;align=center;verticalAlign=bottom;endFill=0;rounded=0;exitX=0.714;exitY=-0.029;exitDx=0;exitDy=0;exitPerimeter=0;entryX=0;entryY=0.5;entryDx=0;entryDy=0;" edge="1" parent="1" source="qlaNP4QB0QQA5OWCbkRz-6" target="qlaNP4QB0QQA5OWCbkRz-20">
          <mxGeometry y="3" relative="1" as="geometry">
            <mxPoint x="155" y="530" as="sourcePoint" />
            <mxPoint x="220" y="340" as="targetPoint" />
          </mxGeometry>
        </mxCell>
        <mxCell id="qlaNP4QB0QQA5OWCbkRz-39" value="" style="endArrow=none;html=1;endSize=12;startArrow=none;startSize=14;startFill=0;align=center;verticalAlign=bottom;endFill=0;rounded=0;entryX=0;entryY=0.75;entryDx=0;entryDy=0;" edge="1" parent="1">
          <mxGeometry y="3" relative="1" as="geometry">
            <mxPoint x="70" y="380" as="sourcePoint" />
            <mxPoint x="200" y="506.45833333333326" as="targetPoint" />
          </mxGeometry>
        </mxCell>
        <mxCell id="qlaNP4QB0QQA5OWCbkRz-40" value="si possono mettere le condizioni di attivazione nella gerarchia?" style="text;html=1;align=center;verticalAlign=middle;resizable=0;points=[];autosize=1;strokeColor=none;fillColor=none;" vertex="1" parent="1">
          <mxGeometry x="150" y="18" width="360" height="30" as="geometry" />
        </mxCell>
        <mxCell id="qlaNP4QB0QQA5OWCbkRz-41" value="bonus +25%" style="ellipse;html=1;whiteSpace=wrap;" vertex="1" parent="1">
          <mxGeometry x="460" y="620" width="110" height="40" as="geometry" />
        </mxCell>
        <mxCell id="qlaNP4QB0QQA5OWCbkRz-42" value="bonus +100%" style="ellipse;html=1;whiteSpace=wrap;" vertex="1" parent="1">
          <mxGeometry x="290" y="640" width="110" height="40" as="geometry" />
        </mxCell>
        <mxCell id="qlaNP4QB0QQA5OWCbkRz-44" value="&amp;lt;&amp;lt;extend&amp;gt;&amp;gt;" style="endArrow=open;html=1;rounded=0;align=center;verticalAlign=bottom;dashed=1;endFill=0;labelBackgroundColor=none;exitX=0;exitY=0.5;exitDx=0;exitDy=0;entryX=0.708;entryY=0.966;entryDx=0;entryDy=0;entryPerimeter=0;" edge="1" parent="1" source="qlaNP4QB0QQA5OWCbkRz-41" target="qlaNP4QB0QQA5OWCbkRz-45">
          <mxGeometry relative="1" as="geometry">
            <mxPoint x="319.43" y="470" as="sourcePoint" />
            <mxPoint x="309.6600000000003" y="419.5" as="targetPoint" />
            <Array as="points" />
          </mxGeometry>
        </mxCell>
        <mxCell id="qlaNP4QB0QQA5OWCbkRz-45" value="" style="shape=ellipse;container=1;horizontal=1;horizontalStack=0;resizeParent=1;resizeParentMax=0;resizeLast=0;html=1;dashed=0;collapsible=0;" vertex="1" parent="1">
          <mxGeometry x="200" y="470" width="150" height="70" as="geometry" />
        </mxCell>
        <mxCell id="qlaNP4QB0QQA5OWCbkRz-46" value="accumula punti" style="html=1;strokeColor=none;fillColor=none;align=center;verticalAlign=middle;rotatable=0;whiteSpace=wrap;" vertex="1" parent="qlaNP4QB0QQA5OWCbkRz-45">
          <mxGeometry y="20" width="150" height="17.5" as="geometry" />
        </mxCell>
        <mxCell id="qlaNP4QB0QQA5OWCbkRz-50" value="&amp;lt;&amp;lt;extend&amp;gt;&amp;gt;" style="endArrow=open;html=1;rounded=0;align=center;verticalAlign=bottom;dashed=1;endFill=0;labelBackgroundColor=none;exitX=0.447;exitY=0.096;exitDx=0;exitDy=0;entryX=0.69;entryY=0.975;entryDx=0;entryDy=0;exitPerimeter=0;entryPerimeter=0;" edge="1" parent="1" source="qlaNP4QB0QQA5OWCbkRz-42" target="qlaNP4QB0QQA5OWCbkRz-45">
          <mxGeometry relative="1" as="geometry">
            <mxPoint x="424" y="470" as="sourcePoint" />
            <mxPoint x="350" y="430" as="targetPoint" />
            <Array as="points" />
          </mxGeometry>
        </mxCell>
        <mxCell id="qlaNP4QB0QQA5OWCbkRz-54" value="extension Point:viaggia" style="shape=note2;boundedLbl=1;whiteSpace=wrap;html=1;size=25;verticalAlign=top;align=left;spacingLeft=5;" vertex="1" parent="1">
          <mxGeometry x="590" y="490" width="160" height="60" as="geometry" />
        </mxCell>
        <mxCell id="qlaNP4QB0QQA5OWCbkRz-55" value="condition:punti&amp;gt;25000" style="resizeWidth=1;part=1;strokeColor=none;fillColor=none;align=left;spacingLeft=5;html=1;whiteSpace=wrap;" vertex="1" parent="qlaNP4QB0QQA5OWCbkRz-54">
          <mxGeometry width="160" height="25" relative="1" as="geometry" />
        </mxCell>
        <mxCell id="qlaNP4QB0QQA5OWCbkRz-57" value="" style="html=1;verticalAlign=bottom;labelBackgroundColor=none;endArrow=oval;endFill=0;endSize=8;rounded=0;exitX=0.5;exitY=1;exitDx=0;exitDy=0;exitPerimeter=0;" edge="1" parent="1" source="qlaNP4QB0QQA5OWCbkRz-54">
          <mxGeometry width="160" relative="1" as="geometry">
            <mxPoint x="440" y="370" as="sourcePoint" />
            <mxPoint x="420" y="590" as="targetPoint" />
          </mxGeometry>
        </mxCell>
        <mxCell id="qlaNP4QB0QQA5OWCbkRz-58" value="extension Point:viaggia" style="shape=note2;boundedLbl=1;whiteSpace=wrap;html=1;size=25;verticalAlign=top;align=left;spacingLeft=5;" vertex="1" parent="1">
          <mxGeometry x="80" y="640" width="160" height="60" as="geometry" />
        </mxCell>
        <mxCell id="qlaNP4QB0QQA5OWCbkRz-59" value="condition:punti&amp;gt;50000" style="resizeWidth=1;part=1;strokeColor=none;fillColor=none;align=left;spacingLeft=5;html=1;whiteSpace=wrap;" vertex="1" parent="qlaNP4QB0QQA5OWCbkRz-58">
          <mxGeometry width="160" height="25" relative="1" as="geometry" />
        </mxCell>
        <mxCell id="qlaNP4QB0QQA5OWCbkRz-60" value="" style="html=1;verticalAlign=bottom;labelBackgroundColor=none;endArrow=oval;endFill=0;endSize=8;rounded=0;exitX=0.43;exitY=-0.046;exitDx=0;exitDy=0;exitPerimeter=0;" edge="1" parent="1" source="qlaNP4QB0QQA5OWCbkRz-59">
          <mxGeometry width="160" relative="1" as="geometry">
            <mxPoint x="450" y="370" as="sourcePoint" />
            <mxPoint x="330" y="600" as="targetPoint" />
          </mxGeometry>
        </mxCell>
        <mxCell id="qlaNP4QB0QQA5OWCbkRz-61" value="biglietto gratis" style="ellipse;html=1;whiteSpace=wrap;" vertex="1" parent="1">
          <mxGeometry x="-140" y="230" width="110" height="40" as="geometry" />
        </mxCell>
        <mxCell id="qlaNP4QB0QQA5OWCbkRz-62" value="" style="endArrow=none;html=1;endSize=12;startArrow=none;startSize=14;startFill=0;align=center;verticalAlign=bottom;endFill=0;rounded=0;exitX=0.5;exitY=0;exitDx=0;exitDy=0;exitPerimeter=0;entryX=0.5;entryY=1;entryDx=0;entryDy=0;" edge="1" parent="1" source="qlaNP4QB0QQA5OWCbkRz-6" target="qlaNP4QB0QQA5OWCbkRz-61">
          <mxGeometry y="3" relative="1" as="geometry">
            <mxPoint x="81" y="388" as="sourcePoint" />
            <mxPoint x="220" y="240" as="targetPoint" />
          </mxGeometry>
        </mxCell>
        <mxCell id="qlaNP4QB0QQA5OWCbkRz-63" value="europa" style="ellipse;html=1;whiteSpace=wrap;" vertex="1" parent="1">
          <mxGeometry x="-120" y="150" width="110" height="40" as="geometry" />
        </mxCell>
        <mxCell id="qlaNP4QB0QQA5OWCbkRz-64" value="altro" style="ellipse;html=1;whiteSpace=wrap;" vertex="1" parent="1">
          <mxGeometry x="-260" y="150" width="110" height="40" as="geometry" />
        </mxCell>
        <mxCell id="qlaNP4QB0QQA5OWCbkRz-65" value="" style="endArrow=block;html=1;rounded=0;align=center;verticalAlign=bottom;endFill=0;labelBackgroundColor=none;endSize=8;exitX=0.5;exitY=1;exitDx=0;exitDy=0;" edge="1" parent="1" source="qlaNP4QB0QQA5OWCbkRz-64" target="qlaNP4QB0QQA5OWCbkRz-61">
          <mxGeometry x="0.001" relative="1" as="geometry">
            <mxPoint x="-100" y="170" as="sourcePoint" />
            <mxPoint x="30" y="220" as="targetPoint" />
            <mxPoint as="offset" />
          </mxGeometry>
        </mxCell>
        <mxCell id="qlaNP4QB0QQA5OWCbkRz-67" value="" style="endArrow=block;html=1;rounded=0;align=center;verticalAlign=bottom;endFill=0;labelBackgroundColor=none;endSize=8;exitX=0.448;exitY=0.983;exitDx=0;exitDy=0;exitPerimeter=0;entryX=0.431;entryY=0.055;entryDx=0;entryDy=0;entryPerimeter=0;" edge="1" parent="1" source="qlaNP4QB0QQA5OWCbkRz-63" target="qlaNP4QB0QQA5OWCbkRz-61">
          <mxGeometry x="0.001" relative="1" as="geometry">
            <mxPoint x="-90" y="180" as="sourcePoint" />
            <mxPoint x="-41" y="212" as="targetPoint" />
            <mxPoint as="offset" />
          </mxGeometry>
        </mxCell>
        <mxCell id="qlaNP4QB0QQA5OWCbkRz-68" value="scala punti" style="ellipse;html=1;whiteSpace=wrap;" vertex="1" parent="1">
          <mxGeometry x="-120" y="70" width="110" height="40" as="geometry" />
        </mxCell>
        <mxCell id="qlaNP4QB0QQA5OWCbkRz-69" value="&amp;lt;&amp;lt;include&amp;gt;&amp;gt;" style="html=1;verticalAlign=bottom;labelBackgroundColor=none;endArrow=open;endFill=0;dashed=1;rounded=0;exitX=0.483;exitY=-0.076;exitDx=0;exitDy=0;exitPerimeter=0;entryX=0.5;entryY=1;entryDx=0;entryDy=0;" edge="1" parent="1" source="qlaNP4QB0QQA5OWCbkRz-63" target="qlaNP4QB0QQA5OWCbkRz-68">
          <mxGeometry width="160" relative="1" as="geometry">
            <mxPoint x="-240" y="110" as="sourcePoint" />
            <mxPoint x="-80" y="110" as="targetPoint" />
          </mxGeometry>
        </mxCell>
        <mxCell id="qlaNP4QB0QQA5OWCbkRz-70" value="-20k" style="ellipse;html=1;whiteSpace=wrap;" vertex="1" parent="1">
          <mxGeometry x="-40" width="110" height="40" as="geometry" />
        </mxCell>
        <mxCell id="qlaNP4QB0QQA5OWCbkRz-71" value="-45k" style="ellipse;html=1;whiteSpace=wrap;" vertex="1" parent="1">
          <mxGeometry x="-200" width="110" height="40" as="geometry" />
        </mxCell>
        <mxCell id="qlaNP4QB0QQA5OWCbkRz-72" value="" style="endArrow=block;html=1;rounded=0;align=center;verticalAlign=bottom;endFill=0;labelBackgroundColor=none;endSize=8;exitX=0.561;exitY=1.019;exitDx=0;exitDy=0;exitPerimeter=0;" edge="1" parent="1" source="qlaNP4QB0QQA5OWCbkRz-71" target="qlaNP4QB0QQA5OWCbkRz-68">
          <mxGeometry x="0.001" relative="1" as="geometry">
            <mxPoint x="-134" y="60" as="sourcePoint" />
            <mxPoint x="-156" y="103" as="targetPoint" />
            <mxPoint as="offset" />
          </mxGeometry>
        </mxCell>
        <mxCell id="qlaNP4QB0QQA5OWCbkRz-74" value="carta=ordinaria" style="edgeLabel;html=1;align=center;verticalAlign=middle;resizable=0;points=[];" vertex="1" connectable="0" parent="qlaNP4QB0QQA5OWCbkRz-72">
          <mxGeometry x="-0.0649" y="1" relative="1" as="geometry">
            <mxPoint as="offset" />
          </mxGeometry>
        </mxCell>
        <mxCell id="qlaNP4QB0QQA5OWCbkRz-73" value="" style="endArrow=block;html=1;rounded=0;align=center;verticalAlign=bottom;endFill=0;labelBackgroundColor=none;endSize=8;exitX=0.345;exitY=0.924;exitDx=0;exitDy=0;exitPerimeter=0;entryX=0.431;entryY=0.055;entryDx=0;entryDy=0;entryPerimeter=0;" edge="1" parent="1" source="qlaNP4QB0QQA5OWCbkRz-70">
          <mxGeometry x="0.001" relative="1" as="geometry">
            <mxPoint x="-30" y="27" as="sourcePoint" />
            <mxPoint x="-52" y="70" as="targetPoint" />
            <mxPoint as="offset" />
          </mxGeometry>
        </mxCell>
        <mxCell id="qlaNP4QB0QQA5OWCbkRz-75" value="carta=silver o gold" style="edgeLabel;html=1;align=center;verticalAlign=middle;resizable=0;points=[];" vertex="1" connectable="0" parent="qlaNP4QB0QQA5OWCbkRz-73">
          <mxGeometry x="-0.1874" relative="1" as="geometry">
            <mxPoint as="offset" />
          </mxGeometry>
        </mxCell>
        <mxCell id="qlaNP4QB0QQA5OWCbkRz-76" value="scala punti" style="ellipse;html=1;whiteSpace=wrap;" vertex="1" parent="1">
          <mxGeometry x="-340" y="86.5" width="110" height="40" as="geometry" />
        </mxCell>
        <mxCell id="qlaNP4QB0QQA5OWCbkRz-77" value="&amp;lt;&amp;lt;include&amp;gt;&amp;gt;" style="html=1;verticalAlign=bottom;labelBackgroundColor=none;endArrow=open;endFill=0;dashed=1;rounded=0;entryX=0.5;entryY=1;entryDx=0;entryDy=0;" edge="1" parent="1" target="qlaNP4QB0QQA5OWCbkRz-76" source="qlaNP4QB0QQA5OWCbkRz-64">
          <mxGeometry width="160" relative="1" as="geometry">
            <mxPoint x="-287" y="163.5" as="sourcePoint" />
            <mxPoint x="-300" y="126.5" as="targetPoint" />
          </mxGeometry>
        </mxCell>
        <mxCell id="qlaNP4QB0QQA5OWCbkRz-78" value="-50k" style="ellipse;html=1;whiteSpace=wrap;" vertex="1" parent="1">
          <mxGeometry x="-490" y="40" width="110" height="40" as="geometry" />
        </mxCell>
        <mxCell id="qlaNP4QB0QQA5OWCbkRz-79" value="" style="endArrow=block;html=1;rounded=0;align=center;verticalAlign=bottom;endFill=0;labelBackgroundColor=none;endSize=8;exitX=0.561;exitY=1.019;exitDx=0;exitDy=0;exitPerimeter=0;" edge="1" parent="1" source="qlaNP4QB0QQA5OWCbkRz-78" target="qlaNP4QB0QQA5OWCbkRz-76">
          <mxGeometry x="0.001" relative="1" as="geometry">
            <mxPoint x="-354" y="76.5" as="sourcePoint" />
            <mxPoint x="-376" y="119.5" as="targetPoint" />
            <mxPoint as="offset" />
          </mxGeometry>
        </mxCell>
        <mxCell id="qlaNP4QB0QQA5OWCbkRz-80" value="carta=ordinaria" style="edgeLabel;html=1;align=center;verticalAlign=middle;resizable=0;points=[];" vertex="1" connectable="0" parent="qlaNP4QB0QQA5OWCbkRz-79">
          <mxGeometry x="-0.0649" y="1" relative="1" as="geometry">
            <mxPoint as="offset" />
          </mxGeometry>
        </mxCell>
        <mxCell id="qlaNP4QB0QQA5OWCbkRz-81" value="" style="endArrow=block;html=1;rounded=0;align=center;verticalAlign=bottom;endFill=0;labelBackgroundColor=none;endSize=8;entryX=0.431;entryY=0.055;entryDx=0;entryDy=0;entryPerimeter=0;" edge="1" parent="1" source="qlaNP4QB0QQA5OWCbkRz-83">
          <mxGeometry x="0.001" relative="1" as="geometry">
            <mxPoint x="-222" y="53.5" as="sourcePoint" />
            <mxPoint x="-272" y="86.5" as="targetPoint" />
            <mxPoint as="offset" />
          </mxGeometry>
        </mxCell>
        <mxCell id="qlaNP4QB0QQA5OWCbkRz-82" value="carta=silver o gold" style="edgeLabel;html=1;align=center;verticalAlign=middle;resizable=0;points=[];" vertex="1" connectable="0" parent="qlaNP4QB0QQA5OWCbkRz-81">
          <mxGeometry x="-0.1874" relative="1" as="geometry">
            <mxPoint as="offset" />
          </mxGeometry>
        </mxCell>
        <mxCell id="qlaNP4QB0QQA5OWCbkRz-83" value="-45k" style="ellipse;html=1;whiteSpace=wrap;" vertex="1" parent="1">
          <mxGeometry x="-320" y="18" width="110" height="40" as="geometry" />
        </mxCell>
        <mxCell id="qlaNP4QB0QQA5OWCbkRz-84" value="" style="endArrow=none;html=1;endSize=12;startArrow=none;startSize=14;startFill=0;align=center;verticalAlign=bottom;endFill=0;rounded=0;exitX=0.5;exitY=0;exitDx=0;exitDy=0;exitPerimeter=0;entryX=1;entryY=0.5;entryDx=0;entryDy=0;" edge="1" parent="1" source="qlaNP4QB0QQA5OWCbkRz-1" target="qlaNP4QB0QQA5OWCbkRz-20">
          <mxGeometry y="3" relative="1" as="geometry">
            <mxPoint x="155" y="530" as="sourcePoint" />
            <mxPoint x="220" y="340" as="targetPoint" />
          </mxGeometry>
        </mxCell>
        <mxCell id="qlaNP4QB0QQA5OWCbkRz-86" value="" style="endArrow=none;html=1;endSize=12;startArrow=none;startSize=14;startFill=0;align=center;verticalAlign=bottom;endFill=0;rounded=0;exitX=0.5;exitY=0;exitDx=0;exitDy=0;exitPerimeter=0;entryX=1;entryY=0.5;entryDx=0;entryDy=0;" edge="1" parent="1" source="qlaNP4QB0QQA5OWCbkRz-7" target="qlaNP4QB0QQA5OWCbkRz-15">
          <mxGeometry y="3" relative="1" as="geometry">
            <mxPoint x="705" y="180" as="sourcePoint" />
            <mxPoint x="330" y="240" as="targetPoint" />
          </mxGeometry>
        </mxCell>
        <mxCell id="qlaNP4QB0QQA5OWCbkRz-87" value="" style="endArrow=none;html=1;endSize=12;startArrow=none;startSize=14;startFill=0;align=center;verticalAlign=bottom;endFill=0;rounded=0;exitX=0.5;exitY=0;exitDx=0;exitDy=0;exitPerimeter=0;entryX=1;entryY=0.5;entryDx=0;entryDy=0;" edge="1" parent="1" source="qlaNP4QB0QQA5OWCbkRz-1" target="qlaNP4QB0QQA5OWCbkRz-15">
          <mxGeometry y="3" relative="1" as="geometry">
            <mxPoint x="705" y="180" as="sourcePoint" />
            <mxPoint x="330" y="240" as="targetPoint" />
          </mxGeometry>
        </mxCell>
        <mxCell id="qlaNP4QB0QQA5OWCbkRz-89" value="" style="endArrow=none;html=1;endSize=12;startArrow=none;startSize=14;startFill=0;align=center;verticalAlign=bottom;endFill=0;rounded=0;exitX=0.5;exitY=0;exitDx=0;exitDy=0;exitPerimeter=0;entryX=1;entryY=0.5;entryDx=0;entryDy=0;" edge="1" parent="1" source="qlaNP4QB0QQA5OWCbkRz-7">
          <mxGeometry y="3" relative="1" as="geometry">
            <mxPoint x="705" y="340" as="sourcePoint" />
            <mxPoint x="350" y="502.08333333333326" as="targetPoint" />
          </mxGeometry>
        </mxCell>
        <mxCell id="qlaNP4QB0QQA5OWCbkRz-90" value="" style="endArrow=none;html=1;endSize=12;startArrow=none;startSize=14;startFill=0;align=center;verticalAlign=bottom;endFill=0;rounded=0;exitX=0.5;exitY=0;exitDx=0;exitDy=0;exitPerimeter=0;entryX=1;entryY=0.5;entryDx=0;entryDy=0;" edge="1" parent="1" source="qlaNP4QB0QQA5OWCbkRz-1">
          <mxGeometry y="3" relative="1" as="geometry">
            <mxPoint x="705" y="180" as="sourcePoint" />
            <mxPoint x="350" y="502.08333333333326" as="targetPoint" />
          </mxGeometry>
        </mxCell>
        <mxCell id="qlaNP4QB0QQA5OWCbkRz-91" value="elimina" style="ellipse;html=1;whiteSpace=wrap;" vertex="1" parent="1">
          <mxGeometry x="210" y="370" width="110" height="40" as="geometry" />
        </mxCell>
        <mxCell id="qlaNP4QB0QQA5OWCbkRz-92" value="visualizza voli" style="ellipse;html=1;whiteSpace=wrap;" vertex="1" parent="1">
          <mxGeometry x="210" y="420" width="110" height="40" as="geometry" />
        </mxCell>
        <mxCell id="qlaNP4QB0QQA5OWCbkRz-93" value="" style="endArrow=none;html=1;endSize=12;startArrow=none;startSize=14;startFill=0;align=center;verticalAlign=bottom;endFill=0;rounded=0;" edge="1" parent="1" target="qlaNP4QB0QQA5OWCbkRz-91">
          <mxGeometry y="3" relative="1" as="geometry">
            <mxPoint x="70" y="380" as="sourcePoint" />
            <mxPoint x="220" y="240" as="targetPoint" />
          </mxGeometry>
        </mxCell>
        <mxCell id="qlaNP4QB0QQA5OWCbkRz-94" value="" style="endArrow=none;html=1;endSize=12;startArrow=none;startSize=14;startFill=0;align=center;verticalAlign=bottom;endFill=0;rounded=0;exitX=0.5;exitY=0;exitDx=0;exitDy=0;exitPerimeter=0;entryX=0;entryY=0.5;entryDx=0;entryDy=0;" edge="1" parent="1" source="qlaNP4QB0QQA5OWCbkRz-6" target="qlaNP4QB0QQA5OWCbkRz-92">
          <mxGeometry y="3" relative="1" as="geometry">
            <mxPoint x="91" y="398" as="sourcePoint" />
            <mxPoint x="230" y="250" as="targetPoint" />
          </mxGeometry>
        </mxCell>
        <mxCell id="qlaNP4QB0QQA5OWCbkRz-95" value="voli effettuati" style="ellipse;html=1;whiteSpace=wrap;" vertex="1" parent="1">
          <mxGeometry x="210" y="740" width="110" height="40" as="geometry" />
        </mxCell>
        <mxCell id="qlaNP4QB0QQA5OWCbkRz-96" value="" style="endArrow=none;html=1;endSize=12;startArrow=none;startSize=14;startFill=0;align=center;verticalAlign=bottom;endFill=0;rounded=0;entryX=1;entryY=0.5;entryDx=0;entryDy=0;" edge="1" parent="1" target="qlaNP4QB0QQA5OWCbkRz-92">
          <mxGeometry y="3" relative="1" as="geometry">
            <mxPoint x="690" y="170" as="sourcePoint" />
            <mxPoint x="330" y="240" as="targetPoint" />
          </mxGeometry>
        </mxCell>
        <mxCell id="qlaNP4QB0QQA5OWCbkRz-97" value="" style="endArrow=none;html=1;endSize=12;startArrow=none;startSize=14;startFill=0;align=center;verticalAlign=bottom;endFill=0;rounded=0;entryX=1;entryY=0.5;entryDx=0;entryDy=0;exitX=0.5;exitY=0;exitDx=0;exitDy=0;exitPerimeter=0;" edge="1" parent="1" source="qlaNP4QB0QQA5OWCbkRz-1" target="qlaNP4QB0QQA5OWCbkRz-95">
          <mxGeometry y="3" relative="1" as="geometry">
            <mxPoint x="700" y="180" as="sourcePoint" />
            <mxPoint x="330" y="450" as="targetPoint" />
          </mxGeometry>
        </mxCell>
        <mxCell id="qlaNP4QB0QQA5OWCbkRz-98" value="" style="endArrow=none;html=1;endSize=12;startArrow=none;startSize=14;startFill=0;align=center;verticalAlign=bottom;endFill=0;rounded=0;entryX=1;entryY=0.5;entryDx=0;entryDy=0;exitX=0.5;exitY=0;exitDx=0;exitDy=0;exitPerimeter=0;" edge="1" parent="1" source="qlaNP4QB0QQA5OWCbkRz-7" target="qlaNP4QB0QQA5OWCbkRz-95">
          <mxGeometry y="3" relative="1" as="geometry">
            <mxPoint x="710" y="190" as="sourcePoint" />
            <mxPoint x="340" y="460" as="targetPoint" />
          </mxGeometry>
        </mxCell>
        <mxCell id="qlaNP4QB0QQA5OWCbkRz-99" value="" style="endArrow=none;html=1;endSize=12;startArrow=none;startSize=14;startFill=0;align=center;verticalAlign=bottom;endFill=0;rounded=0;entryX=1;entryY=0.5;entryDx=0;entryDy=0;exitX=0.5;exitY=0;exitDx=0;exitDy=0;exitPerimeter=0;" edge="1" parent="1" source="qlaNP4QB0QQA5OWCbkRz-7" target="qlaNP4QB0QQA5OWCbkRz-92">
          <mxGeometry y="3" relative="1" as="geometry">
            <mxPoint x="720" y="200" as="sourcePoint" />
            <mxPoint x="350" y="470" as="targetPoint" />
          </mxGeometry>
        </mxCell>
        <mxCell id="qlaNP4QB0QQA5OWCbkRz-104" value="" style="endArrow=none;html=1;endSize=12;startArrow=none;startSize=14;startFill=0;align=center;verticalAlign=bottom;endFill=0;rounded=0;entryX=0;entryY=0.5;entryDx=0;entryDy=0;exitX=0.75;exitY=0.1;exitDx=0;exitDy=0;exitPerimeter=0;" edge="1" parent="1" source="qlaNP4QB0QQA5OWCbkRz-6" target="qlaNP4QB0QQA5OWCbkRz-95">
          <mxGeometry y="3" relative="1" as="geometry">
            <mxPoint x="80" y="390" as="sourcePoint" />
            <mxPoint x="210" y="516.4583333333333" as="targetPoint" />
          </mxGeometry>
        </mxCell>
        <mxCell id="qlaNP4QB0QQA5OWCbkRz-105" value="mancano&lt;div&gt;&amp;nbsp;fornire totale miglia&lt;/div&gt;&lt;div&gt;totale miglia acquisite&lt;/div&gt;&lt;div&gt;prenotazione area&amp;nbsp;&lt;/div&gt;&lt;div&gt;totale miglia a disposizioni&lt;/div&gt;&lt;div&gt;totale miglia volate dal 1 genn&lt;/div&gt;&lt;div&gt;totale miglia acquisite da 1 gennaio&lt;/div&gt;" style="text;html=1;align=center;verticalAlign=middle;resizable=0;points=[];autosize=1;strokeColor=none;fillColor=none;" vertex="1" parent="1">
          <mxGeometry x="135" y="778" width="210" height="110" as="geometry" />
        </mxCell>
      </root>
    </mxGraphModel>
  </diagram>
  <diagram id="cYsRbeIN8uleiui3Vh1q" name="Pagina-2">
    <mxGraphModel dx="1674" dy="827" grid="1" gridSize="10" guides="1" tooltips="1" connect="1" arrows="1" fold="1" page="1" pageScale="1" pageWidth="827" pageHeight="1169" math="0" shadow="0">
      <root>
        <mxCell id="0" />
        <mxCell id="1" parent="0" />
      </root>
    </mxGraphModel>
  </diagram>
</mxfile>
